<svg width="133" height="172" viewBox="0 0 133 172" fill="none" xmlns="http://www.w3.org/2000/svg">
<mask id="path-1-inside-1_119_114" fill="white">
<path fill-rule="evenodd" clip-rule="evenodd" d="M29.3653 0H4.49707C2.28793 0 0.49707 1.79086 0.49707 4V29H5.7328C6.42442 27.8044 7.7171 27 9.19767 27C11.4068 27 13.1977 28.7909 13.1977 31C13.1977 33.2091 11.4068 35 9.19767 35C7.7171 35 6.42442 34.1956 5.7328 33H0.49707V49H5.7328C6.42442 47.8044 7.7171 47 9.19767 47C11.4068 47 13.1977 48.7909 13.1977 51C13.1977 53.2091 11.4068 55 9.19767 55C7.7171 55 6.42442 54.1956 5.7328 53H0.49707V69H5.7328C6.42442 67.8044 7.7171 67 9.19767 67C11.4068 67 13.1977 68.7909 13.1977 71C13.1977 73.2091 11.4068 75 9.19767 75C7.7171 75 6.42442 74.1956 5.7328 73H0.49707V89H5.7328C6.42442 87.8044 7.7171 87 9.19767 87C11.4068 87 13.1977 88.7909 13.1977 91C13.1977 93.2091 11.4068 95 9.19767 95C7.7171 95 6.42442 94.1956 5.7328 93H0.49707V109H5.7328C6.42442 107.804 7.7171 107 9.19767 107C11.4068 107 13.1977 108.791 13.1977 111C13.1977 113.209 11.4068 115 9.19767 115C7.7171 115 6.42442 114.196 5.7328 113H0.49707V129H5.7328C6.42442 127.804 7.7171 127 9.19767 127C11.4068 127 13.1977 128.791 13.1977 131C13.1977 133.209 11.4068 135 9.19767 135C7.7171 135 6.42442 134.196 5.7328 133H0.49707V168C0.49707 170.209 2.28793 172 4.49707 172H29.3653V0ZM31.3653 172H128.329C130.539 172 132.329 170.209 132.329 168V4C132.329 1.79086 130.539 0 128.329 0H31.3653V172Z"/>
</mask>
<path fill-rule="evenodd" clip-rule="evenodd" d="M29.3653 0H4.49707C2.28793 0 0.49707 1.79086 0.49707 4V29H5.7328C6.42442 27.8044 7.7171 27 9.19767 27C11.4068 27 13.1977 28.7909 13.1977 31C13.1977 33.2091 11.4068 35 9.19767 35C7.7171 35 6.42442 34.1956 5.7328 33H0.49707V49H5.7328C6.42442 47.8044 7.7171 47 9.19767 47C11.4068 47 13.1977 48.7909 13.1977 51C13.1977 53.2091 11.4068 55 9.19767 55C7.7171 55 6.42442 54.1956 5.7328 53H0.49707V69H5.7328C6.42442 67.8044 7.7171 67 9.19767 67C11.4068 67 13.1977 68.7909 13.1977 71C13.1977 73.2091 11.4068 75 9.19767 75C7.7171 75 6.42442 74.1956 5.7328 73H0.49707V89H5.7328C6.42442 87.8044 7.7171 87 9.19767 87C11.4068 87 13.1977 88.7909 13.1977 91C13.1977 93.2091 11.4068 95 9.19767 95C7.7171 95 6.42442 94.1956 5.7328 93H0.49707V109H5.7328C6.42442 107.804 7.7171 107 9.19767 107C11.4068 107 13.1977 108.791 13.1977 111C13.1977 113.209 11.4068 115 9.19767 115C7.7171 115 6.42442 114.196 5.7328 113H0.49707V129H5.7328C6.42442 127.804 7.7171 127 9.19767 127C11.4068 127 13.1977 128.791 13.1977 131C13.1977 133.209 11.4068 135 9.19767 135C7.7171 135 6.42442 134.196 5.7328 133H0.49707V168C0.49707 170.209 2.28793 172 4.49707 172H29.3653V0ZM31.3653 172H128.329C130.539 172 132.329 170.209 132.329 168V4C132.329 1.79086 130.539 0 128.329 0H31.3653V172Z" fill="#06B6D4"/>
<path d="M29.3653 0H31.3653V-2H29.3653V0ZM0.49707 29H-1.50293V31H0.49707V29ZM5.7328 29V31H6.88638L7.46401 30.0015L5.7328 29ZM5.7328 33L7.46401 31.9985L6.88638 31H5.7328V33ZM0.49707 33V31H-1.50293V33H0.49707ZM0.49707 49H-1.50293V51H0.49707V49ZM5.7328 49V51H6.88638L7.46401 50.0015L5.7328 49ZM5.7328 53L7.46401 51.9985L6.88638 51H5.7328V53ZM0.49707 53V51H-1.50293V53H0.49707ZM0.49707 69H-1.50293V71H0.49707V69ZM5.7328 69V71H6.88638L7.46401 70.0015L5.7328 69ZM5.7328 73L7.46401 71.9985L6.88638 71H5.7328V73ZM0.49707 73V71H-1.50293V73H0.49707ZM0.49707 89H-1.50293V91H0.49707V89ZM5.7328 89V91H6.88638L7.46401 90.0015L5.7328 89ZM5.7328 93L7.46401 91.9985L6.88638 91H5.7328V93ZM0.49707 93V91H-1.50293V93H0.49707ZM0.49707 109H-1.50293V111H0.49707V109ZM5.7328 109V111H6.88638L7.46401 110.001L5.7328 109ZM5.7328 113L7.46401 111.999L6.88638 111H5.7328V113ZM0.49707 113V111H-1.50293V113H0.49707ZM0.49707 129H-1.50293V131H0.49707V129ZM5.7328 129V131H6.88638L7.46401 130.001L5.7328 129ZM5.7328 133L7.46401 131.999L6.88638 131H5.7328V133ZM0.49707 133V131H-1.50293V133H0.49707ZM29.3653 172V174H31.3653V172H29.3653ZM31.3653 172H29.3653V174H31.3653V172ZM31.3653 0V-2H29.3653V0H31.3653ZM4.49707 2H29.3653V-2H4.49707V2ZM2.49707 4C2.49707 2.89543 3.3925 2 4.49707 2V-2C1.18336 -2 -1.50293 0.686295 -1.50293 4H2.49707ZM2.49707 29V4H-1.50293V29H2.49707ZM5.7328 27H0.49707V31H5.7328V27ZM9.19767 25C6.9743 25 5.036 26.2104 4.00159 27.9985L7.46401 30.0015C7.81284 29.3984 8.4599 29 9.19767 29V25ZM15.1977 31C15.1977 27.6863 12.5114 25 9.19767 25V29C10.3022 29 11.1977 29.8954 11.1977 31H15.1977ZM9.19767 37C12.5114 37 15.1977 34.3137 15.1977 31H11.1977C11.1977 32.1046 10.3022 33 9.19767 33V37ZM4.00159 34.0015C5.036 35.7896 6.9743 37 9.19767 37V33C8.4599 33 7.81284 32.6016 7.46401 31.9985L4.00159 34.0015ZM0.49707 35H5.7328V31H0.49707V35ZM2.49707 49V33H-1.50293V49H2.49707ZM5.7328 47H0.49707V51H5.7328V47ZM9.19767 45C6.9743 45 5.036 46.2104 4.00159 47.9985L7.46401 50.0015C7.81284 49.3984 8.4599 49 9.19767 49V45ZM15.1977 51C15.1977 47.6863 12.5114 45 9.19767 45V49C10.3022 49 11.1977 49.8954 11.1977 51H15.1977ZM9.19767 57C12.5114 57 15.1977 54.3137 15.1977 51H11.1977C11.1977 52.1046 10.3022 53 9.19767 53V57ZM4.00159 54.0015C5.036 55.7896 6.9743 57 9.19767 57V53C8.4599 53 7.81284 52.6016 7.46401 51.9985L4.00159 54.0015ZM0.49707 55H5.7328V51H0.49707V55ZM2.49707 69V53H-1.50293V69H2.49707ZM5.7328 67H0.49707V71H5.7328V67ZM9.19767 65C6.9743 65 5.036 66.2104 4.00159 67.9985L7.46401 70.0015C7.81284 69.3984 8.45991 69 9.19767 69V65ZM15.1977 71C15.1977 67.6863 12.5114 65 9.19767 65V69C10.3022 69 11.1977 69.8954 11.1977 71H15.1977ZM9.19767 77C12.5114 77 15.1977 74.3137 15.1977 71H11.1977C11.1977 72.1046 10.3022 73 9.19767 73V77ZM4.00159 74.0015C5.036 75.7896 6.9743 77 9.19767 77V73C8.45991 73 7.81284 72.6016 7.46401 71.9985L4.00159 74.0015ZM0.49707 75H5.7328V71H0.49707V75ZM2.49707 89V73H-1.50293V89H2.49707ZM5.7328 87H0.49707V91H5.7328V87ZM9.19767 85C6.9743 85 5.036 86.2104 4.00159 87.9985L7.46401 90.0015C7.81284 89.3984 8.45991 89 9.19767 89V85ZM15.1977 91C15.1977 87.6863 12.5114 85 9.19767 85V89C10.3022 89 11.1977 89.8954 11.1977 91H15.1977ZM9.19767 97C12.5114 97 15.1977 94.3137 15.1977 91H11.1977C11.1977 92.1046 10.3022 93 9.19767 93V97ZM4.00159 94.0015C5.036 95.7896 6.9743 97 9.19767 97V93C8.45991 93 7.81284 92.6016 7.46401 91.9985L4.00159 94.0015ZM0.49707 95H5.7328V91H0.49707V95ZM2.49707 109V93H-1.50293V109H2.49707ZM5.7328 107H0.49707V111H5.7328V107ZM9.19767 105C6.9743 105 5.036 106.21 4.00159 107.999L7.46401 110.001C7.81284 109.398 8.45991 109 9.19767 109V105ZM15.1977 111C15.1977 107.686 12.5114 105 9.19767 105V109C10.3022 109 11.1977 109.895 11.1977 111H15.1977ZM9.19767 117C12.5114 117 15.1977 114.314 15.1977 111H11.1977C11.1977 112.105 10.3022 113 9.19767 113V117ZM4.00159 114.001C5.036 115.79 6.9743 117 9.19767 117V113C8.45991 113 7.81284 112.602 7.46401 111.999L4.00159 114.001ZM0.49707 115H5.7328V111H0.49707V115ZM2.49707 129V113H-1.50293V129H2.49707ZM5.7328 127H0.49707V131H5.7328V127ZM9.19767 125C6.9743 125 5.036 126.21 4.00159 127.999L7.46401 130.001C7.81284 129.398 8.45991 129 9.19767 129V125ZM15.1977 131C15.1977 127.686 12.5114 125 9.19767 125V129C10.3022 129 11.1977 129.895 11.1977 131H15.1977ZM9.19767 137C12.5114 137 15.1977 134.314 15.1977 131H11.1977C11.1977 132.105 10.3022 133 9.19767 133V137ZM4.00159 134.001C5.036 135.79 6.9743 137 9.19767 137V133C8.45991 133 7.81284 132.602 7.46401 131.999L4.00159 134.001ZM0.49707 135H5.7328V131H0.49707V135ZM2.49707 168V133H-1.50293V168H2.49707ZM4.49707 170C3.3925 170 2.49707 169.105 2.49707 168H-1.50293C-1.50293 171.314 1.18336 174 4.49707 174V170ZM29.3653 170H4.49707V174H29.3653V170ZM31.3653 172V0H27.3653V172H31.3653ZM128.329 170H31.3653V174H128.329V170ZM130.329 168C130.329 169.105 129.434 170 128.329 170V174C131.643 174 134.329 171.314 134.329 168H130.329ZM130.329 4V168H134.329V4H130.329ZM128.329 2C129.434 2 130.329 2.89543 130.329 4H134.329C134.329 0.686291 131.643 -2 128.329 -2V2ZM31.3653 2H128.329V-2H31.3653V2ZM29.3653 0V172H33.3653V0H29.3653Z" fill="#155E75" mask="url(#path-1-inside-1_119_114)"/>
<rect x="57.697" y="33.9394" width="42.4242" height="48.3636" rx="11" fill="#F9FAFB"/>
<path d="M99.8107 77.9754C99.636 78.2239 99.069 78.7135 97.7712 79.2757C96.536 79.8107 94.8591 80.3181 92.7745 80.7484C88.6087 81.6083 83.3152 82.0582 77.8876 81.994C72.4558 81.9296 67.3597 81.3559 63.547 80.4094C61.6355 79.9349 60.1909 79.402 59.2108 78.8734C58.1469 78.2995 57.975 77.918 57.9818 77.9376" stroke="#111827" stroke-width="4" stroke-linecap="round"/>
<path d="M57.697 33.8419V77.534" stroke="#111827" stroke-width="4" stroke-linecap="round"/>
<path d="M100.141 33.8419V77.8461" stroke="#111827" stroke-width="4" stroke-linecap="round"/>
<path d="M58.1306 48.0941C58.9788 48.9736 60.207 49.6502 61.5502 50.1862C62.9298 50.7368 64.5996 51.2047 66.484 51.5829C70.253 52.3394 74.8202 52.7245 79.4487 52.6927C84.0755 52.661 88.5698 52.2139 92.203 51.4031C94.0186 50.9979 95.6151 50.503 96.9128 49.9221C98.1644 49.3618 99.3427 48.6326 100.09 47.6482" stroke="#111827" stroke-width="4" stroke-linecap="round"/>
<path d="M58.3896 59.5811C59.2824 60.3971 60.5245 61.0394 61.8988 61.5564C63.3031 62.0847 64.9852 62.5332 66.8733 62.8943C70.6489 63.6163 75.1743 63.9738 79.739 63.9253C84.3012 63.8768 88.7167 63.4246 92.2871 62.6193C94.0714 62.2169 95.6419 61.727 96.9217 61.1532C98.1576 60.599 99.3183 59.881 100.064 58.9172" stroke="#111827" stroke-width="4" stroke-linecap="round"/>
<path d="M58.006 68.8065C58.8345 69.7271 60.0668 70.4256 61.4043 70.9733C62.7825 71.5376 64.4607 72.0167 66.3598 72.4038C70.1589 73.1782 74.7856 73.5723 79.4745 73.5386C84.1615 73.5048 88.7099 73.045 92.3631 72.213C94.1883 71.7974 95.7884 71.2895 97.0795 70.6922C98.3189 70.1189 99.5018 69.3606 100.217 68.3194" stroke="#111827" stroke-width="4" stroke-linecap="round"/>
<path d="M79 41C84.3801 41 89.3261 40.3712 92.9911 39.3102C94.8103 38.7836 96.428 38.1184 97.6365 37.2913C98.7802 36.5085 100 35.2621 100 33.5C100 31.7379 98.7802 30.4915 97.6365 29.7087C96.428 28.8816 94.8103 28.2164 92.9911 27.6898C89.3261 26.6288 84.3801 26 79 26C73.6199 26 68.6739 26.6288 65.0089 27.6898C63.1897 28.2164 61.572 28.8816 60.3635 29.7087C59.2198 30.4915 58 31.7379 58 33.5C58 35.2621 59.2198 36.5085 60.3635 37.2913C61.572 38.1184 63.1897 38.7836 65.0089 39.3102C68.6739 40.3712 73.6199 41 79 41Z" fill="#4B5563" stroke="#111827" stroke-width="4"/>
<path d="M43.7545 102.994H93.7545" stroke="white" stroke-width="5" stroke-linecap="round"/>
<path d="M43.7545 114.994H118.755" stroke="white" stroke-width="5" stroke-linecap="round"/>
<path d="M43.7545 126.994H68.7545" stroke="white" stroke-width="5" stroke-linecap="round"/>
</svg>
